<svg width="24" height="24" viewBox="0 0 24 24" fill="none" xmlns="http://www.w3.org/2000/svg">
<path fill-rule="evenodd" clip-rule="evenodd" d="M20.9799 19.9062V19.1875C20.9799 16.4088 18.7273 14.1562 15.9486 14.1562C13.3144 14.1562 9.95783 14.1562 7.32361 14.1562C4.54492 14.1562 2.29236 16.4088 2.29236 19.1875V19.9062C2.29236 20.4784 2.51948 21.0268 2.92414 21.4307C3.32808 21.8354 3.87648 22.0625 4.44861 22.0625H18.8236C19.3957 22.0625 19.9441 21.8354 20.3481 21.4307C20.7527 21.0268 20.9799 20.4784 20.9799 19.9062ZM19.5424 19.1875V19.9062C19.5424 20.0967 19.4669 20.28 19.3318 20.4144C19.1974 20.5495 19.0141 20.625 18.8236 20.625H4.44861C4.25814 20.625 4.07486 20.5495 3.94045 20.4144C3.80533 20.28 3.72986 20.0967 3.72986 19.9062V19.1875C3.72986 17.203 5.33914 15.5938 7.32361 15.5938H15.9486C17.9331 15.5938 19.5424 17.203 19.5424 19.1875ZM11.6361 1.9375C8.6612 1.9375 6.24548 4.35322 6.24548 7.32812C6.24548 10.303 8.6612 12.7188 11.6361 12.7188C14.611 12.7188 17.0267 10.303 17.0267 7.32812C17.0267 4.35322 14.611 1.9375 11.6361 1.9375ZM11.6361 3.375C13.8182 3.375 15.5892 5.146 15.5892 7.32812C15.5892 9.51025 13.8182 11.2812 11.6361 11.2812C9.45398 11.2812 7.68298 9.51025 7.68298 7.32812C7.68298 5.146 9.45398 3.375 11.6361 3.375Z" fill="black"/>
</svg>
