<svg width="19" height="20" viewBox="0 0 19 20" fill="none" xmlns="http://www.w3.org/2000/svg">
<g clip-path="url(#clip0_492_12636)">
<path d="M17.8725 10.9407H0.940542C0.691063 10.9407 0.451801 10.8415 0.275392 10.6651C0.0989834 10.4888 -0.00012207 10.2495 -0.00012207 10C-0.00012207 9.75052 0.0989834 9.51126 0.275392 9.33485C0.451801 9.15845 0.691063 9.05934 0.940542 9.05934H17.8725C18.122 9.05934 18.3613 9.15845 18.5376 9.33485C18.714 9.51126 18.8132 9.75052 18.8132 10C18.8132 10.2495 18.714 10.4888 18.5376 10.6651C18.3613 10.8415 18.122 10.9407 17.8725 10.9407ZM17.8725 4.35602H0.940542C0.691063 4.35602 0.451801 4.25691 0.275392 4.08051C0.0989834 3.9041 -0.00012207 3.66484 -0.00012207 3.41536C-0.00012207 3.16588 0.0989834 2.92662 0.275392 2.75021C0.451801 2.5738 0.691063 2.4747 0.940542 2.4747H17.8725C18.122 2.4747 18.3613 2.5738 18.5376 2.75021C18.714 2.92662 18.8132 3.16588 18.8132 3.41536C18.8132 3.66484 18.714 3.9041 18.5376 4.08051C18.3613 4.25691 18.122 4.35602 17.8725 4.35602ZM17.8725 17.5253H0.940542C0.691063 17.5253 0.451801 17.4262 0.275392 17.2498C0.0989834 17.0734 -0.00012207 16.8341 -0.00012207 16.5847C-0.00012207 16.3352 0.0989834 16.0959 0.275392 15.9195C0.451801 15.7431 0.691063 15.644 0.940542 15.644H17.8725C18.122 15.644 18.3613 15.7431 18.5376 15.9195C18.714 16.0959 18.8132 16.3352 18.8132 16.5847C18.8132 16.8341 18.714 17.0734 18.5376 17.2498C18.3613 17.4262 18.122 17.5253 17.8725 17.5253Z" fill="black"/>
</g>
<defs>
<clipPath id="clip0_492_12636">
<rect width="18.8133" height="18.8133" fill="white" transform="translate(0 0.593365)"/>
</clipPath>
</defs>
</svg>
