<svg width="24" height="24" viewBox="0 0 24 24" fill="none" xmlns="http://www.w3.org/2000/svg">
<g clip-path="url(#clip0_492_12651)">
<path fill-rule="evenodd" clip-rule="evenodd" d="M10.8863 18.9697C11.66 18.9697 12.288 19.5977 12.288 20.3713C12.288 21.1449 11.66 21.7729 10.8863 21.7729C10.1127 21.7729 9.48474 21.1449 9.48474 20.3713C9.48474 19.5977 10.1127 18.9697 10.8863 18.9697ZM16.9827 18.9697C17.7564 18.9697 18.3843 19.5977 18.3843 20.3713C18.3843 21.1449 17.7564 21.7729 16.9827 21.7729C16.2091 21.7729 15.5811 21.1449 15.5811 20.3713C15.5811 19.5977 16.2091 18.9697 16.9827 18.9697ZM1.57971 4.96827H3.5598C3.94522 4.96827 4.28395 5.22546 4.3871 5.59764C4.3871 5.59764 4.3878 5.59764 4.3878 5.59833C5.0548 7.99939 6.49613 13.1876 7.16592 15.5978C7.48025 16.7303 8.51177 17.5137 9.68616 17.5137H18.1488C19.3496 17.5137 20.3965 16.6962 20.6871 15.5309C21.2768 13.1744 22.4477 8.49006 22.4477 8.49006C22.5125 8.23009 22.454 7.95409 22.2888 7.74291C22.1236 7.53103 21.8706 7.40767 21.6023 7.40767H9.48474C9.00383 7.40767 8.61353 7.79797 8.61353 8.27888C8.61353 8.75979 9.00383 9.15009 9.48474 9.15009H20.4864L18.9963 15.1099C18.8994 15.4988 18.5495 15.7713 18.1488 15.7713H9.68616C9.29377 15.7713 8.94947 15.5092 8.84422 15.1315C8.17444 12.7214 6.7331 7.53242 6.0661 5.13136C5.75456 4.00576 4.72862 3.22585 3.5598 3.22585H1.57971C1.0988 3.22585 0.708496 3.61615 0.708496 4.09706C0.708496 4.57797 1.0988 4.96827 1.57971 4.96827Z" fill="black"/>
</g>
<defs>
<clipPath id="clip0_492_12651">
<rect width="23" height="23" fill="white" transform="translate(0.424072 0.5)"/>
</clipPath>
</defs>
</svg>
