<svg width="82" height="14" viewBox="0 0 82 14" fill="none" xmlns="http://www.w3.org/2000/svg">
<path d="M0.462681 13.5V0.506303H2.85071V6.14276L7.80237 0.523862H10.7874L5.15095 6.75733L11.0157 13.5H7.92528L2.85071 7.56504V13.5H0.462681ZM15.3358 13.6756C14.3642 13.6756 13.6267 13.3771 13.1234 12.7801C12.6317 12.1831 12.3859 11.4163 12.3859 10.4798V4.1937H14.7037V10.0935C14.7037 10.5969 14.8383 11.0008 15.1075 11.3051C15.3768 11.5978 15.7572 11.7441 16.2489 11.7441C16.682 11.7441 17.0332 11.6329 17.3024 11.4105C17.5717 11.1881 17.7648 10.9013 17.8819 10.5501C18.0106 10.1989 18.075 9.83601 18.075 9.46142V4.1937H20.4104V13.5H18.075V12.1655H17.9697C17.8526 12.3762 17.6829 12.5986 17.4605 12.8328C17.2497 13.0669 16.9688 13.2659 16.6176 13.4298C16.2781 13.5937 15.8509 13.6756 15.3358 13.6756ZM27.2017 13.6756C26.511 13.6756 25.9082 13.541 25.3931 13.2717C24.878 12.9908 24.4449 12.6221 24.0937 12.1655C23.7542 11.6973 23.4967 11.1764 23.3211 10.6028C23.1572 10.0292 23.0753 9.44386 23.0753 8.84685C23.0753 8.24985 23.1572 7.66454 23.3211 7.09095C23.4967 6.51735 23.7542 6.00229 24.0937 5.54575C24.4449 5.07751 24.878 4.70877 25.3931 4.43953C25.9082 4.15859 26.511 4.01811 27.2017 4.01811C27.7987 4.01811 28.2903 4.11761 28.6766 4.31662C29.0629 4.50391 29.3673 4.71462 29.5897 4.94874C29.8121 5.17116 29.9643 5.3526 30.0462 5.49307H30.1516V0.155121H32.4869V13.5H30.1516V12.2006H30.0462C29.9643 12.3411 29.8121 12.5284 29.5897 12.7625C29.3673 12.9966 29.0629 13.2074 28.6766 13.3946C28.2903 13.5819 27.7987 13.6756 27.2017 13.6756ZM27.8162 11.7617C28.343 11.7617 28.782 11.6212 29.1332 11.3402C29.4844 11.0476 29.7477 10.6788 29.9233 10.234C30.0989 9.78919 30.1867 9.3268 30.1867 8.84685C30.1867 8.36691 30.0989 7.90452 29.9233 7.45969C29.7477 7.01486 29.4844 6.65197 29.1332 6.37103C28.782 6.07838 28.343 5.93205 27.8162 5.93205C27.2895 5.93205 26.8446 6.07838 26.4818 6.37103C26.1306 6.65197 25.8672 7.01486 25.6916 7.45969C25.516 7.90452 25.4282 8.36691 25.4282 8.84685C25.4282 9.3268 25.516 9.78919 25.6916 10.234C25.8672 10.6788 26.1306 11.0476 26.4818 11.3402C26.8446 11.6212 27.2895 11.7617 27.8162 11.7617ZM36.8736 2.75386C36.4639 2.75386 36.1244 2.61924 35.8552 2.35C35.5977 2.08076 35.4689 1.75885 35.4689 1.38425C35.4689 1.00966 35.5977 0.687745 35.8552 0.418506C36.1244 0.149268 36.4639 0.0146492 36.8736 0.0146492C37.2833 0.0146492 37.6228 0.149268 37.892 0.418506C38.1613 0.687745 38.2959 1.00966 38.2959 1.38425C38.2959 1.75885 38.1613 2.08076 37.892 2.35C37.6228 2.61924 37.2833 2.75386 36.8736 2.75386ZM35.7147 13.5V4.1937H38.0501V13.5H35.7147ZM47.1434 13.6756C46.0898 13.6756 45.1651 13.4883 44.3691 13.1137C43.5848 12.7274 42.9234 12.2182 42.3849 11.5861C41.8581 10.9422 41.4601 10.2282 41.1909 9.44386C40.9333 8.64785 40.8046 7.83428 40.8046 7.00315C40.8046 6.17202 40.9333 5.35845 41.1909 4.56244C41.4601 3.76643 41.8581 3.05237 42.3849 2.42024C42.9234 1.77641 43.5848 1.26719 44.3691 0.892601C45.1651 0.518008 46.0898 0.330711 47.1434 0.330711C48.0213 0.330711 48.7764 0.441919 49.4085 0.664334C50.0406 0.886749 50.5674 1.17355 50.9888 1.52473C51.4102 1.87591 51.7439 2.2505 51.9897 2.64851C52.2472 3.04651 52.4404 3.42111 52.5691 3.77229C52.6979 4.12347 52.7798 4.41027 52.815 4.63268C52.8618 4.8551 52.8852 4.9663 52.8852 4.9663H50.5147C50.5147 4.9663 50.4913 4.88436 50.4445 4.72048C50.4094 4.55659 50.3274 4.35174 50.1987 4.10591C50.0816 3.84838 49.9002 3.5967 49.6543 3.35087C49.4085 3.10504 49.0807 2.90019 48.671 2.7363C48.273 2.57242 47.7755 2.49048 47.1785 2.49048C46.523 2.49048 45.9494 2.61924 45.4577 2.87678C44.9661 3.1226 44.5564 3.46208 44.2286 3.8952C43.9008 4.32832 43.655 4.81412 43.4911 5.3526C43.3389 5.89108 43.2628 6.44126 43.2628 7.00315C43.2628 7.56504 43.3389 8.11523 43.4911 8.6537C43.655 9.18048 43.9008 9.66042 44.2286 10.0935C44.5564 10.5267 44.9661 10.872 45.4577 11.1295C45.9494 11.3871 46.523 11.5158 47.1785 11.5158C47.7755 11.5158 48.273 11.4339 48.671 11.27C49.0807 11.0944 49.4085 10.8837 49.6543 10.6379C49.9002 10.3921 50.0816 10.1462 50.1987 9.9004C50.3274 9.65457 50.4094 9.44971 50.4445 9.28583C50.4913 9.11024 50.5147 9.02244 50.5147 9.02244H52.8852C52.8852 9.02244 52.8618 9.13365 52.815 9.35607C52.7798 9.57848 52.6979 9.87113 52.5691 10.234C52.4404 10.5852 52.2472 10.9598 51.9897 11.3578C51.7439 11.7441 51.4102 12.1187 50.9888 12.4816C50.5674 12.8328 50.0406 13.1196 49.4085 13.342C48.7764 13.5644 48.0213 13.6756 47.1434 13.6756ZM59.3827 4.01811C59.9797 4.01811 60.4713 4.11761 60.8576 4.31662C61.2439 4.50391 61.5483 4.71462 61.7707 4.94874C61.9931 5.17116 62.1453 5.3526 62.2272 5.49307H62.3326V4.1937H64.6679V13.5H62.3326V12.2006H62.2272C62.1453 12.3411 61.9931 12.5284 61.7707 12.7625C61.5483 12.9966 61.2439 13.2074 60.8576 13.3946C60.4713 13.5819 59.9797 13.6756 59.3827 13.6756C58.692 13.6756 58.0891 13.541 57.5741 13.2717C57.059 12.9908 56.6259 12.6221 56.2747 12.1655C55.9352 11.6973 55.6777 11.1764 55.5021 10.6028C55.3382 10.0292 55.2563 9.44386 55.2563 8.84685C55.2563 8.24985 55.3382 7.66454 55.5021 7.09095C55.6777 6.51735 55.9352 6.00229 56.2747 5.54575C56.6259 5.07751 57.059 4.70877 57.5741 4.43953C58.0891 4.15859 58.692 4.01811 59.3827 4.01811ZM59.9972 5.93205C59.4705 5.93205 59.0256 6.07838 58.6627 6.37103C58.3116 6.65197 58.0482 7.01486 57.8726 7.45969C57.697 7.90452 57.6092 8.36691 57.6092 8.84685C57.6092 9.3268 57.697 9.78919 57.8726 10.234C58.0482 10.6788 58.3116 11.0476 58.6627 11.3402C59.0256 11.6212 59.4705 11.7617 59.9972 11.7617C60.524 11.7617 60.963 11.6212 61.3142 11.3402C61.6653 11.0476 61.9287 10.6788 62.1043 10.234C62.2799 9.78919 62.3677 9.3268 62.3677 8.84685C62.3677 8.36691 62.2799 7.90452 62.1043 7.45969C61.9287 7.01486 61.6653 6.65197 61.3142 6.37103C60.963 6.07838 60.524 5.93205 59.9972 5.93205ZM67.4784 13.5V4.1937H69.7962V5.47552H69.884C70.0479 5.11263 70.3171 4.77901 70.6917 4.47465C71.0663 4.17029 71.6282 4.01811 72.3774 4.01811C72.6115 4.01811 72.8046 4.03567 72.9568 4.07079C73.109 4.0942 73.1851 4.10591 73.1851 4.10591V6.37103C73.1851 6.37103 73.0973 6.35932 72.9217 6.33591C72.7578 6.3125 72.553 6.30079 72.3071 6.30079C71.4877 6.30079 70.8673 6.52906 70.4459 6.98559C70.0245 7.44213 69.8138 8.17961 69.8138 9.19804V13.5H67.4784ZM79.6756 13.6756C79.0434 13.6756 78.5225 13.5819 78.1128 13.3946C77.7031 13.2074 77.3812 12.9615 77.147 12.6572C76.9246 12.3528 76.7666 12.0192 76.673 11.6563C76.5793 11.2934 76.5325 10.9364 76.5325 10.5852V6.07252H74.9346V4.1937H76.5325V1.87591H78.8678V4.1937H80.9574V6.07252H78.8678V10.5325C78.8678 11.3637 79.3361 11.7792 80.2726 11.7792C80.495 11.7792 80.6998 11.7675 80.8871 11.7441C81.0861 11.709 81.1856 11.6914 81.1856 11.6914V13.5176C81.1856 13.5176 81.0335 13.541 80.7291 13.5878C80.4364 13.6463 80.0853 13.6756 79.6756 13.6756Z" fill="black"/>
</svg>
